<?xml version="1.0" encoding="UTF-8" standalone="no"?>
<!-- Created with Inkscape (http://www.inkscape.org/) -->

<svg
   xmlns:dc="http://purl.org/dc/elements/1.1/"
   xmlns:cc="http://creativecommons.org/ns#"
   xmlns:rdf="http://www.w3.org/1999/02/22-rdf-syntax-ns#"
   xmlns:svg="http://www.w3.org/2000/svg"
   xmlns="http://www.w3.org/2000/svg"
   xmlns:sodipodi="http://sodipodi.sourceforge.net/DTD/sodipodi-0.dtd"
   xmlns:inkscape="http://www.inkscape.org/namespaces/inkscape"
   width="225.12125"
   height="191.5425"
   id="svg4476"
   version="1.1"
   inkscape:version="0.48.4 r9939"
   sodipodi:docname="alien_1.svg">
  <defs
     id="defs4478" />
  <sodipodi:namedview
     id="base"
     pagecolor="#ffffff"
     bordercolor="#666666"
     borderopacity="1.0"
     inkscape:pageopacity="0.0"
     inkscape:pageshadow="2"
     inkscape:zoom="0.35"
     inkscape:cx="112.56062"
     inkscape:cy="95.771247"
     inkscape:document-units="px"
     inkscape:current-layer="layer1"
     showgrid="false"
     inkscape:window-width="1600"
     inkscape:window-height="876"
     inkscape:window-x="0"
     inkscape:window-y="24"
     inkscape:window-maximized="1"
     objecttolerance="20"
     fit-margin-top="0"
     fit-margin-left="0"
     fit-margin-right="0"
     fit-margin-bottom="0" />
  <metadata
     id="metadata4481">
    <rdf:RDF>
      <cc:Work
         rdf:about="">
        <dc:format>image/svg+xml</dc:format>
        <dc:type
           rdf:resource="http://purl.org/dc/dcmitype/StillImage" />
        <dc:title></dc:title>
      </cc:Work>
    </rdf:RDF>
  </metadata>
  <g
     inkscape:label="Layer 1"
     inkscape:groupmode="layer"
     id="layer1"
     transform="translate(-262.43938,-436.59093)">
    <path
       inkscape:connector-curvature="0"
       d="m 431.74938,532.07218 -28.77625,0 0,-22.85875 28.77625,0 0,22.85875 z m -84.18375,0 -28.77876,0 0,-22.85875 28.77876,0 0,22.85875 z m 110.54375,-48.375 0,24.36375 -27.43375,0 0,-24.36375 -27.03125,0 0,-21.82 26.62875,0 0,-25.28625 -28.2425,0 0,24.59375 -54.465,0 0,-24.59375 -28.24125,0 0,25.28625 27.435,0 0,21.82 -27.435,0 0,24.36375 -27.4325,0 0,-24.36375 -29.4525,0 0,144.43625 57.69124,0 0,-24.5925 -28.23874,0 0,-45.605 28.23874,0 0,23.43625 26.62876,0 0,23.55375 56.885,0 0,-23.55375 27.8375,0 0,-23.43625 26.62749,0 0,45.605 -27.43374,0 0,24.5925 56.885,0 0,-144.43625 -29.45126,0 z"
       style="fill:#ffffff;fill-opacity:1;fill-rule:nonzero;stroke:none"
       id="path42"
       inkscape:export-filename="/home/loup/Desktop/alien_1.png"
       inkscape:export-xdpi="90"
       inkscape:export-ydpi="90" />
  </g>
</svg>
